<svg width="44" height="44" viewBox="0 0 44 44" fill="none" xmlns="http://www.w3.org/2000/svg">
    <rect width="44" height="44" rx="22" fill="url(#paint0_linear_415_266)" />
    <path d="M27.22 19.75H18.96C18.4 19.75 17.84 19.56 17.4 19.2L15.21 17.45C14.61 16.97 14.27 16.26 14.27 15.5C14.27 14.74 14.61 14.02 15.21 13.55L17.4 11.8C17.84 11.45 18.4 11.25 18.96 11.25H27.22C28.6 11.25 29.72 12.37 29.72 13.75V17.25C29.72 18.63 28.6 19.75 27.22 19.75ZM18.96 12.75C18.73 12.75 18.51 12.83 18.34 12.97L16.15 14.72C15.91 14.91 15.77 15.2 15.77 15.5C15.77 15.8 15.91 16.09 16.15 16.28L18.34 18.03C18.52 18.17 18.74 18.25 18.96 18.25H27.22C27.77 18.25 28.22 17.8 28.22 17.25V13.75C28.22 13.2 27.77 12.75 27.22 12.75H18.96Z" fill="white" />
    <path d="M25.0598 29.75H16.7998C15.4198 29.75 14.2998 28.63 14.2998 27.25V23.75C14.2998 22.37 15.4198 21.25 16.7998 21.25H25.0598C25.6298 21.25 26.1798 21.44 26.6198 21.8L28.8098 23.55C29.4098 24.03 29.7498 24.74 29.7498 25.5C29.7498 26.26 29.4098 26.98 28.8098 27.45L26.6198 29.2C26.1798 29.56 25.6298 29.75 25.0598 29.75ZM16.7998 22.75C16.2498 22.75 15.7998 23.2 15.7998 23.75V27.25C15.7998 27.8 16.2498 28.25 16.7998 28.25H25.0598C25.2898 28.25 25.5098 28.17 25.6798 28.03L27.8698 26.28C28.1098 26.09 28.2498 25.8 28.2498 25.5C28.2498 25.2 28.1098 24.91 27.8698 24.72L25.6798 22.97C25.4998 22.83 25.2798 22.75 25.0598 22.75H16.7998Z" fill="white" />
    <path d="M22 22.75C21.59 22.75 21.25 22.41 21.25 22V19C21.25 18.59 21.59 18.25 22 18.25C22.41 18.25 22.75 18.59 22.75 19V22C22.75 22.41 22.41 22.75 22 22.75Z" fill="white" />
    <path d="M22 32.75C21.59 32.75 21.25 32.41 21.25 32V29C21.25 28.59 21.59 28.25 22 28.25C22.41 28.25 22.75 28.59 22.75 29V32C22.75 32.41 22.41 32.75 22 32.75Z" fill="white" />
    <path d="M25 32.75H19C18.59 32.75 18.25 32.41 18.25 32C18.25 31.59 18.59 31.25 19 31.25H25C25.41 31.25 25.75 31.59 25.75 32C25.75 32.41 25.41 32.75 25 32.75Z" fill="white" />
    <defs>
        <linearGradient id="paint0_linear_415_266" x1="22" y1="0" x2="22" y2="44" gradientUnits="userSpaceOnUse">
            <stop stop-color="#99CEFF" />
            <stop offset="1" stop-color="#7B61FF" />
        </linearGradient>
    </defs>
</svg>
    